<?xml version="1.0" standalone="no"?>
<!DOCTYPE svg PUBLIC "-//W3C//DTD SVG 20010904//EN"
 "http://www.w3.org/TR/2001/REC-SVG-20010904/DTD/svg10.dtd">
<svg version="1.0" xmlns="http://www.w3.org/2000/svg"
 width="1052.000000pt" height="1052.000000pt" viewBox="0 0 1052.000000 1052.000000"
 preserveAspectRatio="xMidYMid meet">
<metadata>
Created by potrace 1.11, written by Peter Selinger 2001-2013
</metadata>
<g transform="translate(0.000000,1052.000000) scale(0.100000,-0.100000)"
fill="#000000" stroke="none">
<path d="M6045 10436 c-74 -24 -139 -55 -190 -89 -44 -31 -173 -164 -180 -187
-4 -11 -10 -20 -15 -20 -17 0 -129 -242 -168 -365 -23 -71 -44 -141 -46 -155
-2 -14 -9 -45 -16 -70 -7 -25 -13 -52 -15 -60 -1 -8 -6 -35 -11 -60 -4 -25 -8
-47 -9 -50 -1 -3 -5 -25 -9 -50 -5 -25 -10 -54 -13 -65 -2 -11 -6 -38 -8 -60
-3 -22 -7 -51 -10 -65 -3 -14 -8 -41 -10 -60 -14 -94 -18 -117 -22 -135 -2
-11 -6 -42 -9 -70 -7 -68 -12 -100 -14 -100 -1 0 -3 -11 -4 -25 -2 -14 -6 -50
-10 -80 -10 -72 -13 -94 -21 -160 -4 -30 -8 -61 -10 -70 -1 -8 -6 -46 -10 -85
-3 -38 -9 -86 -12 -105 -3 -19 -7 -53 -8 -75 -4 -53 -15 -154 -20 -185 -2 -14
-7 -59 -10 -100 -3 -41 -8 -91 -10 -110 -12 -102 -16 -141 -20 -197 -2 -33 -7
-83 -9 -110 -3 -26 -8 -82 -11 -123 -3 -41 -8 -93 -11 -115 -2 -22 -7 -76 -10
-120 -3 -44 -7 -105 -10 -135 -2 -30 -6 -80 -8 -110 -2 -30 -7 -95 -11 -145
-4 -49 -8 -112 -10 -140 -10 -153 -16 -234 -20 -270 -2 -22 -7 -94 -10 -160
-4 -66 -8 -136 -10 -155 -2 -19 -7 -82 -10 -140 -4 -58 -9 -125 -10 -150 -2
-25 -6 -88 -10 -140 -3 -52 -8 -124 -11 -160 -3 -36 -7 -94 -9 -130 -3 -36 -7
-93 -10 -127 -3 -35 -8 -100 -11 -145 -2 -46 -7 -105 -9 -133 -2 -27 -7 -93
-10 -145 -3 -52 -7 -122 -10 -155 -2 -33 -7 -105 -10 -160 -3 -55 -8 -134 -10
-175 -17 -302 -28 -581 -41 -1050 -6 -208 -10 -1395 -5 -1460 1 -14 1 -50 1
-80 -1 -30 -1 -57 0 -60 0 -3 3 -93 5 -200 10 -435 7 -407 70 -570 31 -80 58
-153 60 -164 3 -10 12 -43 20 -74 21 -69 26 -155 12 -192 -33 -88 -182 -63
-353 61 -55 39 -106 78 -114 85 -8 8 -35 31 -60 52 -115 95 -313 294 -390 392
-14 18 -30 38 -36 44 -50 53 -255 345 -306 436 -14 25 -48 84 -76 132 -43 73
-187 361 -211 423 -5 11 -18 40 -29 65 -73 162 -163 413 -251 700 -66 215 -70
233 -65 242 3 4 0 8 -7 8 -7 0 -10 3 -7 6 4 3 2 20 -3 37 -14 43 -18 65 -24
111 -3 21 -7 41 -9 45 -2 3 -7 26 -10 51 -3 25 -8 56 -11 70 -11 58 -21 133
-31 225 -3 39 -11 80 -15 93 -7 17 -6 21 3 16 6 -4 9 -3 6 2 -7 10 -18 103
-24 197 -27 414 -23 1006 12 1492 3 44 7 109 9 145 1 36 6 108 10 160 4 52 8
115 10 140 1 25 6 88 10 140 4 52 7 113 7 135 -4 135 -2 185 8 230 6 28 14 61
16 74 7 33 60 170 100 259 19 41 34 76 34 79 0 3 6 19 14 36 64 149 87 246 87
362 0 170 -102 355 -230 416 -69 33 -168 30 -247 -6 -32 -16 -60 -32 -62 -37
-2 -4 -9 -8 -15 -8 -19 -1 -110 -100 -143 -155 -52 -86 -68 -172 -51 -275 6
-40 35 -94 75 -141 20 -24 38 -51 38 -61 1 -10 2 -19 4 -20 2 -4 8 -27 15 -63
3 -16 7 -39 10 -50 26 -119 26 -499 0 -737 -3 -24 -7 -69 -10 -100 -3 -32 -7
-84 -10 -115 -13 -129 -14 -153 -20 -278 -5 -128 -14 -684 -15 -940 0 -140 7
-426 15 -540 12 -198 20 -298 29 -365 3 -19 8 -60 11 -90 3 -30 8 -66 10 -80
3 -14 7 -43 10 -65 3 -22 11 -68 18 -103 8 -34 10 -59 6 -55 -10 11 -98 294
-113 364 -3 13 -15 58 -26 99 -11 41 -22 84 -25 95 -2 11 -9 37 -14 58 -5 20
-7 37 -5 37 3 0 0 8 -5 19 -6 10 -13 31 -16 47 -6 37 -14 74 -19 99 -12 52
-48 238 -61 310 -8 44 -17 91 -20 105 -2 14 -7 42 -9 62 -5 36 -10 66 -21 133
-3 17 -8 50 -10 75 -3 25 -8 56 -10 70 -6 27 -11 64 -30 230 -9 80 -13 115
-15 115 -1 0 -3 18 -5 40 -5 52 -13 131 -19 175 -2 19 -7 67 -11 105 -4 39 -8
84 -11 100 -2 17 -6 62 -10 100 -3 39 -7 88 -10 110 -2 22 -6 69 -9 105 -3 36
-7 90 -10 120 -3 30 -8 82 -10 115 -2 33 -4 60 -5 60 -3 0 -8 53 -14 137 -3
48 -8 109 -11 135 -16 142 -15 150 20 210 72 118 99 255 80 408 -4 33 -9 63
-12 67 -2 5 -6 16 -8 25 -2 10 -8 29 -13 43 -5 14 -11 30 -12 35 -5 20 -79
121 -108 147 -68 63 -176 87 -282 62 -70 -16 -111 -37 -180 -90 -186 -142
-197 -302 -40 -569 132 -224 186 -353 196 -472 2 -26 6 -68 8 -93 3 -25 7 -70
10 -100 3 -30 7 -73 10 -95 3 -22 7 -66 10 -97 13 -131 18 -175 22 -208 2 -19
6 -60 9 -90 3 -30 8 -68 10 -85 2 -16 7 -57 10 -90 10 -86 14 -117 19 -145 3
-14 7 -45 10 -70 3 -25 11 -72 17 -105 5 -33 12 -71 14 -85 3 -22 13 -73 30
-150 3 -14 8 -38 11 -55 3 -16 9 -48 15 -70 5 -22 11 -48 14 -58 2 -9 6 -21
10 -26 3 -5 7 -22 10 -38 2 -15 9 -48 14 -73 12 -50 21 -117 36 -245 3 -27 8
-68 11 -90 7 -50 12 -87 19 -145 16 -135 42 -297 61 -380 3 -14 7 -34 9 -45
17 -108 139 -486 235 -730 71 -180 127 -319 144 -355 11 -25 21 -49 22 -55 3
-18 84 -188 205 -430 112 -227 147 -292 197 -375 12 -19 26 -44 32 -55 6 -11
19 -33 30 -50 11 -16 23 -37 27 -45 3 -8 24 -41 45 -73 21 -32 38 -60 38 -62
0 -7 181 -272 232 -340 37 -49 232 -297 252 -320 15 -16 48 -55 74 -85 59 -68
316 -327 358 -360 38 -30 55 -42 113 -78 24 -15 48 -32 55 -37 6 -6 43 -26 81
-45 39 -19 72 -38 73 -42 2 -5 11 -8 21 -8 9 0 21 -4 26 -8 25 -22 257 -97
335 -108 19 -3 40 -7 47 -9 26 -9 163 -19 248 -19 138 1 221 11 330 39 122 32
117 31 135 38 8 4 47 15 85 26 39 10 109 30 158 44 48 14 87 23 87 20 0 -3 6
-1 13 5 6 5 28 13 47 16 19 4 40 8 45 10 46 13 94 26 115 30 14 3 81 19 150
36 69 17 134 32 144 35 10 2 54 14 97 25 44 11 89 22 101 24 13 3 23 5 23 6 0
1 7 3 15 5 8 1 33 8 55 14 22 6 45 11 50 12 6 1 20 5 33 10 12 5 33 11 45 13
28 5 260 77 357 111 41 14 84 29 95 32 10 4 59 26 107 50 49 24 91 43 93 43 3
0 34 18 70 40 36 22 68 40 71 40 5 0 154 99 164 110 3 3 23 18 45 35 22 16 45
34 51 40 6 5 35 30 65 55 155 132 320 326 427 504 40 67 57 122 66 221 3 28 7
59 9 70 3 11 8 46 12 79 3 32 8 68 11 80 4 22 30 195 39 261 3 22 8 51 11 65
3 13 7 40 10 60 2 19 9 60 14 90 5 30 12 73 15 95 3 23 7 50 9 62 3 11 7 38
10 59 3 22 8 50 11 64 2 14 7 43 10 65 3 22 7 47 10 55 2 8 6 35 9 60 3 25 8
56 11 70 3 14 7 43 10 65 3 22 7 51 9 65 8 43 28 184 31 215 2 17 6 44 8 60 3
17 8 50 12 75 4 25 9 59 11 75 3 17 7 57 9 90 2 33 5 60 5 60 3 0 7 31 14 90
4 33 10 85 13 115 4 30 7 72 7 92 1 21 3 38 6 38 3 0 6 21 6 48 4 119 22 385
29 419 2 11 6 38 9 59 4 22 17 95 31 164 13 69 27 139 29 155 6 33 11 55 23
111 4 22 8 163 8 314 0 264 -1 277 -23 327 -12 29 -36 73 -53 98 -34 51 -118
127 -146 132 -45 10 -156 11 -186 2 -17 -6 -37 -11 -42 -12 -54 -12 -155 -121
-171 -186 -2 -9 -8 -36 -14 -61 -24 -98 -26 -241 -4 -405 4 -33 8 -68 8 -77 0
-10 3 -18 6 -18 3 0 6 -8 6 -17 1 -10 4 -36 8 -58 4 -22 7 -62 6 -90 -2 -54
-8 -130 -10 -130 0 0 -3 -34 -5 -75 -2 -41 -6 -97 -9 -125 -3 -27 -8 -81 -11
-120 -4 -38 -9 -78 -11 -90 -2 -11 -7 -54 -10 -95 -3 -41 -7 -86 -9 -100 -2
-14 -7 -51 -10 -83 -4 -32 -8 -66 -10 -76 -2 -10 -6 -42 -10 -72 -3 -30 -8
-65 -10 -79 -2 -14 -7 -47 -10 -75 -3 -27 -7 -61 -10 -75 -2 -14 -7 -50 -10
-80 -4 -30 -9 -64 -11 -75 -2 -10 -6 -37 -9 -60 -3 -22 -8 -51 -10 -65 -2 -14
-7 -45 -10 -70 -9 -78 -27 -184 -33 -200 -3 -8 -4 -19 -3 -24 1 -4 -5 -49 -14
-100 -9 -50 -17 -102 -19 -116 -3 -14 -8 -47 -12 -75 -4 -27 -9 -54 -9 -60 -1
-5 -5 -28 -8 -50 -4 -22 -9 -53 -12 -70 -4 -33 -14 -95 -21 -129 -2 -11 -6
-43 -10 -71 -3 -27 -7 -52 -9 -55 -2 -3 -6 -30 -10 -60 -3 -30 -8 -62 -10 -70
-3 -8 -9 -46 -15 -85 -5 -38 -12 -79 -14 -90 -2 -11 -7 -42 -10 -70 -4 -27 -9
-57 -11 -65 -4 -16 -14 -75 -21 -130 -2 -19 -6 -46 -9 -60 -2 -14 -7 -41 -10
-60 -7 -42 -65 -180 -77 -180 -4 0 -8 -6 -8 -13 0 -15 -85 -139 -129 -191 -66
-75 -169 -170 -242 -223 -30 -21 -55 -41 -57 -45 -2 -5 -8 -8 -13 -8 -5 0 -32
-15 -61 -34 -57 -36 -247 -136 -259 -136 -4 0 -38 -14 -75 -31 -37 -17 -72
-32 -78 -33 -6 -1 -15 -4 -21 -7 -5 -4 -55 -21 -110 -38 -55 -18 -107 -35
-115 -38 -8 -3 -19 -7 -25 -8 -27 -7 -164 -45 -195 -54 -31 -10 -37 -8 -61 15
-64 62 -71 174 -24 416 3 13 7 34 10 48 3 14 9 50 15 80 6 30 12 66 15 80 10
53 18 137 16 190 -5 212 -5 563 0 566 4 2 3 22 -1 44 -4 21 -5 42 -2 44 2 3 6
73 8 156 5 261 18 478 39 675 2 22 7 67 10 100 5 57 8 79 20 150 3 17 7 50 11
75 7 57 9 70 27 155 9 39 18 90 22 115 4 25 11 51 17 57 6 7 8 13 5 13 -14 0
84 203 178 370 159 281 220 411 256 550 16 63 19 93 20 190 0 81 -3 109 -16
150 -3 10 -7 27 -9 37 -2 10 -20 53 -40 96 -36 77 -57 145 -73 230 -10 57 -10
404 1 547 4 63 10 212 12 330 2 118 5 260 8 315 3 55 8 161 11 235 3 74 8 171
10 215 3 44 7 134 10 200 6 150 13 326 20 475 22 465 21 1221 -1 1485 -3 39
-5 76 -5 83 2 28 1 39 -4 77 -2 22 -7 85 -10 140 -6 115 -12 189 -20 225 -3
14 -8 41 -11 60 -4 19 -13 60 -21 90 -8 30 -16 62 -18 71 -11 49 -77 195 -120
266 -63 102 -120 169 -193 225 -31 23 -59 45 -62 48 -10 10 -126 63 -170 77
-25 8 -88 16 -140 18 -79 3 -107 0 -165 -19z m198 -275 c131 -60 225 -155 295
-296 39 -78 83 -209 96 -285 3 -19 8 -46 10 -60 10 -59 25 -169 31 -225 3 -33
8 -78 10 -100 26 -253 21 -1179 -10 -2155 -14 -445 -16 -575 -19 -1099 -2
-325 0 -578 6 -598 5 -18 11 -45 13 -61 2 -15 7 -38 10 -52 18 -73 13 -312 -8
-410 -13 -61 -22 -96 -44 -175 -14 -49 -28 -94 -31 -100 -4 -5 -7 -14 -8 -20
-3 -17 -76 -208 -90 -237 -8 -15 -15 -31 -15 -35 -1 -5 -6 -19 -11 -33 -12
-30 -74 -274 -82 -322 -7 -40 -13 -73 -23 -113 -3 -16 -7 -37 -8 -45 -1 -8 -6
-35 -10 -60 -4 -25 -9 -54 -11 -65 -1 -11 -3 -21 -4 -22 -4 -4 -11 -46 -26
-138 -2 -11 -5 -29 -8 -41 -2 -12 -7 -45 -11 -75 -3 -30 -8 -65 -10 -79 -5
-28 -9 -51 -25 -160 -13 -94 -18 -129 -26 -210 -3 -36 -8 -72 -9 -80 -10 -55
-23 -173 -30 -265 -2 -38 -7 -95 -10 -125 -9 -86 -15 -158 -21 -245 -3 -44 -7
-102 -9 -130 -2 -27 -6 -102 -9 -165 -4 -63 -9 -162 -12 -220 -3 -58 -8 -157
-10 -220 -2 -63 -6 -126 -7 -140 -2 -14 0 -32 5 -41 4 -9 4 -19 1 -23 -4 -4
-7 -86 -8 -184 0 -158 -3 -183 -23 -235 -65 -170 -230 -279 -420 -279 -26 0
-49 1 -52 2 -3 1 -21 4 -40 7 -78 11 -190 72 -253 140 -39 41 -96 130 -101
159 -2 10 -7 39 -11 64 -4 25 -9 54 -11 65 -11 51 -16 165 -15 330 0 99 0 275
0 390 -1 337 2 758 6 915 11 442 19 709 30 930 3 58 8 152 10 210 5 124 14
299 20 390 2 36 7 115 10 175 4 61 8 144 11 185 3 41 7 109 9 150 2 40 7 110
10 155 3 44 8 109 10 145 3 36 7 99 10 140 10 140 14 205 20 294 3 49 7 107
10 130 2 22 7 82 10 131 3 50 8 115 10 145 8 102 14 185 20 265 4 44 8 100 10
125 6 72 15 175 20 243 4 57 12 159 21 267 2 25 6 77 9 115 5 79 11 151 19
245 8 90 15 181 21 275 3 44 7 94 10 110 2 17 7 57 10 90 4 33 8 76 11 95 2
19 7 58 9 85 3 28 7 68 9 90 3 22 8 78 11 125 4 47 9 94 12 105 2 11 6 51 8
89 2 38 7 85 9 105 3 20 8 69 11 109 4 41 9 83 11 95 3 12 7 56 9 98 3 41 8
86 10 100 3 13 8 47 10 74 3 28 8 65 11 84 3 19 8 53 10 75 5 45 12 90 18 121
2 11 7 40 11 65 4 25 9 54 11 65 3 11 6 34 9 50 2 17 7 42 10 58 3 15 7 37 9
50 2 12 10 45 16 72 6 28 13 57 15 65 28 120 37 159 45 180 5 14 21 66 36 115
41 136 143 340 201 401 48 52 74 70 122 85 14 4 27 8 29 8 1 1 30 -12 65 -28z
m-3143 -2857 c63 -130 40 -282 -47 -317 -28 -11 -43 -12 -66 -3 -37 14 -127
93 -127 112 0 8 -4 14 -9 14 -14 0 -39 73 -34 100 2 14 14 36 26 49 21 22 188
108 214 110 7 1 26 -29 43 -65z m-1040 -66 c0 -4 6 -8 13 -8 25 0 79 -67 83
-102 7 -69 -47 -145 -130 -184 -104 -49 -175 -3 -171 111 4 112 49 187 125
208 19 5 80 -14 80 -25z m725 -61 c22 -17 14 -61 -12 -72 -21 -8 -63 36 -63
66 0 23 46 27 75 6z m69 -760 c8 -32 -10 -44 -34 -22 -27 24 -25 40 4 43 17 1
25 -5 30 -21z m-589 -1944 c13 -31 14 -63 2 -64 -7 0 -20 -2 -30 -4 -9 -2 -24
3 -32 12 -13 13 -13 18 0 44 17 32 49 39 60 12z"/>
</g>
</svg>
