<?xml version="1.0" encoding="UTF-8" standalone="no"?>
<!-- Created with Inkscape (http://www.inkscape.org/) -->

<svg
   xmlns:dc="http://purl.org/dc/elements/1.1/"
   xmlns:cc="http://creativecommons.org/ns#"
   xmlns:rdf="http://www.w3.org/1999/02/22-rdf-syntax-ns#"
   xmlns:svg="http://www.w3.org/2000/svg"
   xmlns="http://www.w3.org/2000/svg"
   xmlns:sodipodi="http://sodipodi.sourceforge.net/DTD/sodipodi-0.dtd"
   xmlns:inkscape="http://www.inkscape.org/namespaces/inkscape"
   width="210mm"
   height="297mm"
   viewBox="0 0 210 297"
   version="1.1"
   id="svg14"
   inkscape:version="0.92.1 unknown"
   sodipodi:docname="logo.svg">
  <sodipodi:namedview
     id="base"
     pagecolor="#ffffff"
     bordercolor="#666666"
     borderopacity="1.0"
     inkscape:pageopacity="0.0"
     inkscape:pageshadow="2"
     inkscape:zoom="3.959798"
     inkscape:cx="217.60873"
     inkscape:cy="651.47861"
     inkscape:document-units="mm"
     inkscape:current-layer="layer1"
     showgrid="false"
     inkscape:window-width="1920"
     inkscape:window-height="1137"
     inkscape:window-x="0"
     inkscape:window-y="30"
     inkscape:window-maximized="1"
     inkscape:pagecheckerboard="true" />
  <defs
     id="defs8" />
  <metadata
     id="metadata11">
    <rdf:RDF>
      <cc:Work
         rdf:about="">
        <dc:format>image/svg+xml</dc:format>
        <dc:type
           rdf:resource="http://purl.org/dc/dcmitype/StillImage" />
        <dc:title></dc:title>
      </cc:Work>
    </rdf:RDF>
  </metadata>
  <g
     id="layer1"
     inkscape:groupmode="layer"
     inkscape:label="Layer 1">
    <path
       style="opacity:1;fill:#000000;stroke-width:0.53252101"
       d="M 128.90693,0.85020002 C 116.56137,1.6801681 109.76369,14.280004 107.33582,25.192588 98.013832,71.364629 97.252343,118.73745 93.407302,165.5501 c -2.154046,34.08712 -2.656497,68.333 -1.30565,102.44117 1.287654,4.92732 5.054947,10.18157 3.990129,15.24608 -7.457151,-1.1549 -12.599627,-8.00524 -17.966072,-12.86491 -17.70755,-19.35847 -27.603866,-44.96038 -32.361427,-70.6267 -4.116653,-27.03573 -0.847857,-54.39911 0.341249,-81.51371 2.302784,-9.45872 10.117919,-19.008488 5.622023,-29.100871 -2.090838,-6.937252 -10.847764,-10.222298 -16.616329,-5.676997 -6.528316,3.908314 -9.667268,14.255175 -3.435363,19.882978 3.869112,16.53066 -1.607361,33.0563 -0.573779,49.82682 -0.22615,8.75314 -0.321115,17.51674 0.06858,26.26655 -4.551585,-22.96927 -6.785596,-46.77187 -8.067957,-70.00342 5.463057,-8.05702 3.635219,-22.664779 -6.640049,-25.664186 -8.5932747,-1.780514 -18.7699468,7.463884 -14.7804496,16.396146 3.0908352,7.26568 8.8401656,13.64047 8.1137103,22.11943 1.2317513,15.95795 3.4264433,31.8576 7.1299843,47.39792 1.235247,15.70079 4.759725,31.1204 10.954286,45.59136 10.479072,26.41524 24.65675,52.41664 46.203919,71.20173 12.689807,9.8393 30.323553,12.19507 45.074353,5.89702 21.05009,-6.46769 45.06876,-8.11648 62.09297,-23.77705 7.06541,-6.718 14.94187,-14.62737 14.76895,-25.14875 3.73002,-24.75639 8.21108,-49.47361 9.70753,-74.48428 1.54336,-11.2893 6.99731,-24.80636 -0.64246,-35.03644 -4.78484,-7.17903 -17.03186,-3.76165 -18.1243,4.68323 -2.28079,9.58117 2.38452,19.14905 0.0708,28.70942 -2.64842,27.26 -7.15184,54.5855 -11.99157,81.52889 -6.84416,14.88076 -23.82505,21.76735 -38.40096,24.93865 -2.14358,-8.15674 3.46581,-16.43104 1.58233,-24.77849 0.61419,-19.40039 -0.4991,-39.45022 5.30175,-58.05703 4.9364,-11.01437 14.96316,-22.32172 10.88373,-35.28151 -6.32909,-11.7872 -1.6788,-25.37904 -2.49559,-38.06085 1.03395,-31.336521 4.1876,-63.004015 -0.20199,-94.202346 C 149.53349,12.120271 141.33366,0.62434896 128.907,0.85020002 Z m 0.48995,11.68781798 c 10.829,4.398574 11.19539,18.353558 12.05145,28.35284 1.56785,35.197729 -2.28679,70.513392 -0.66129,105.645062 4.05076,14.90234 -6.62136,28.01309 -8.11112,42.39228 -5.32541,26.78804 -6.66084,54.25777 -7.34542,81.44039 -2.49366,10.40401 -19.18953,9.10474 -20.70751,-1.22533 -1.50427,-14.1326 -0.26821,-28.43166 -0.61004,-42.62942 1.29526,-58.16774 6.09713,-116.25313 11.917,-174.16545 2.0385,-13.006846 3.10341,-27.356972 10.88374,-38.488569 0.68198,-0.65914 1.60909,-1.376619 2.58319,-1.321803 z M 42.712109,91.545136 c 1.584161,1.496334 1.083693,8.831454 -2.032241,5.576655 -1.368433,-1.228218 -3.610882,-4.131656 -0.30312,-4.592539 0.728856,-0.186295 1.672209,-0.872811 2.335361,-0.984116 z m -28.636288,2.477656 c 4.696929,0.689267 1.39959,6.315428 -1.778687,5.381762 -0.580994,-1.482152 -0.137831,-5.208557 1.778687,-5.381762 z m 21.435751,0.573103 c 0.110861,2.504395 -2.17748,-0.584926 0,0 z m 2.169502,20.131905 c 2.234586,2.11591 -3.377783,2.56179 -1.077125,0.17946 0.322111,-0.18919 0.713272,-0.2563 1.077125,-0.17946 z m -16.547698,55.42501 c 1.387001,1.80977 -2.355641,0.70299 0,0 z"
       id="path3767-3"
       inkscape:connector-curvature="0" />
    <path
       style="opacity:1;fill:#ffffff;stroke-width:0.53252101"
       d="M 129.31877,2.5746307 C 114.20591,3.9075668 109.74869,21.626221 107.61258,34.19419 100.48067,76.57705 99.082313,119.67971 95.751967,162.48156 93.387709,197.29211 92.993004,232.245 94.1492,267.09534 c 2.053408,6.36307 10.54701,23.05062 -3.327118,16.35794 -25.214787,-17.23516 -38.093637,-47.08202 -45.45033,-75.93784 -5.432197,-27.31463 -3.152828,-55.50047 -1.131982,-83.0723 -2.204259,-12.80111 11.016008,-22.12825 5.919532,-34.726753 -7.168656,-16.852985 -27.590948,2.479632 -16.531487,12.328923 4.196775,15.2252 -1.007045,30.95046 -0.241072,46.44148 -0.57081,18.64869 -0.759428,37.48294 2.67082,55.89303 C 25.776638,173.69927 23.819021,141.03495 20.984481,109.0179 28.822132,99.541591 22.276883,78.764775 8.2331259,87.262423 c -12.8182075,8.851963 1.6672206,18.247397 3.0605911,28.221557 1.8317,16.90418 2.688668,34.20094 7.377924,50.59121 1.505606,11.28507 2.270008,23.23654 6.203499,34.25523 9.955071,29.92402 24.625594,59.31951 47.199161,81.52455 11.449926,10.38643 28.095599,15.01094 42.833289,9.55098 15.70711,-4.94918 32.12696,-7.51248 47.53379,-13.33875 12.80097,-5.57136 24.17174,-15.08991 30.84046,-27.59298 3.0637,-24.54082 8.31935,-48.78868 10.01587,-73.49715 -0.55856,-13.99476 10.86263,-35.87814 -2.65018,-44.845 -15.2296,-2.94692 -12.67151,15.22687 -10.68044,24.52614 -1.81125,30.62514 -7.75772,60.86411 -12.27435,91.17924 -6.71957,17.00373 -24.89699,23.90878 -41.07121,28.05982 -6.20316,-3.33271 1.95866,-18.59706 -0.15022,-26.92307 0.31338,-18.56351 0.0613,-37.41069 4.16976,-55.58559 3.88315,-12.49774 16.74192,-24.07 11.90461,-37.99604 -5.76762,-9.64366 -1.9424,-22.19658 -2.55779,-33.07674 0.95144,-29.727694 3.699,-59.564303 1.15091,-89.270586 C 150.85437,20.839305 146.04693,5.9602796 132.81067,2.9062682 l -1.71848,-0.2603579 z m 0.3614,7.6537953 c 12.6633,4.291377 13.12965,20.41461 14.03242,31.727406 1.08192,34.291291 -1.84081,68.578908 -1.09354,102.866858 3.5468,12.22509 -1.32619,22.5182 -5.54111,33.626 -6.63051,28.19988 -8.75776,57.25949 -9.38896,86.14271 2.38039,15.98424 -18.3811,20.40464 -24.42145,6.44983 -2.1339,-9.3701 -0.5042,-19.53939 -1.12045,-29.26619 -0.0531,-51.70432 4.48712,-103.27119 8.4826,-154.774425 2.7171,-21.877791 2.86268,-44.452575 9.8628,-65.512597 2.05041,-4.031951 3.9531,-10.835372 9.18769,-11.259592 z m -118.256197,78.112846 -0.23537,-0.01929 z m 31.979659,0.186724 c 5.408262,6.338678 0.424926,17.159664 -5.913566,7.201158 -2.849717,-4.942982 3.596069,-4.941524 5.913566,-7.201158 z m -28.936743,3.215802 c 12.321145,4.39512 -6.1818819,16.351282 -3.994935,4.353855 0.348219,-1.946199 1.65188,-4.599177 3.994935,-4.353855 z"
       id="path3767"
       inkscape:connector-curvature="0"
       sodipodi:nodetypes="cccccccccccccccccccccccccccccccccccccccccccccccccccc" />
  </g>
</svg>
